<svg width="20" height="20" viewBox="0 0 20 20" fill="none" xmlns="http://www.w3.org/2000/svg">
<g clip-path="url(#clip0_34_468)">
<rect width="20" height="20" rx="10" fill="#FEC70B" fill-opacity="0.1"/>
<path d="M8.75 0.0585938C5.11719 0.507812 2.02734 2.91406 0.664062 6.35156C0.378906 7.0625 0.125 8.10938 0.0390625 8.91406C-0.0117188 9.40234 -0.0117188 10.5977 0.0390625 11.0859C0.429688 14.7734 2.85938 17.9492 6.35156 19.3359C7.0625 19.6211 8.10938 19.875 8.91406 19.9609C9.40234 20.0117 10.5977 20.0117 11.0859 19.9609C15.0547 19.5391 18.4258 16.7461 19.5859 12.9141C19.875 11.9648 20 11.0859 20 10C20 9.18359 19.9609 8.73438 19.8203 8.02734C19.1641 4.69922 16.8477 1.93359 13.6484 0.664062C12.9375 0.378906 11.8906 0.125 11.0859 0.0390625C10.5742 -0.015625 9.25391 -0.00390625 8.75 0.0585938ZM11.4688 1.71484C13.2188 2.04688 14.7031 2.82422 15.9414 4.0625C17.1758 5.29688 17.9531 6.77734 18.293 8.55078C18.3672 8.94531 18.3789 9.13281 18.3789 10C18.3789 10.8672 18.3672 11.0547 18.293 11.4492C17.9531 13.2227 17.1797 14.6992 15.9375 15.9414C14.7031 17.1758 13.2227 17.9531 11.4492 18.293C11.0547 18.3672 10.8672 18.3789 10 18.3789C9.13281 18.3789 8.94531 18.3672 8.55078 18.293C6.77734 17.9531 5.30078 17.1797 4.05859 15.9375C2.82422 14.7031 2.04688 13.2227 1.70703 11.4492C1.63281 11.0547 1.62109 10.8672 1.62109 10C1.62109 9.13281 1.63281 8.94531 1.70703 8.55078C2.04688 6.77734 2.82031 5.30078 4.0625 4.05859C5.29688 2.82422 6.84375 2.01562 8.53125 1.71875C9.16797 1.60938 9.16016 1.60938 10.1367 1.62109C10.8555 1.62891 11.1211 1.64844 11.4688 1.71484Z" fill="#FEC70B"/>
<path d="M13.7112 6.60155C13.637 6.61327 13.5316 6.64843 13.4769 6.67577C13.4222 6.70311 12.305 7.79686 10.9964 9.10546L8.61359 11.4844L7.6175 10.4844C6.98078 9.84764 6.56672 9.45702 6.46515 9.41014C6.29719 9.33202 6.00031 9.31249 5.84406 9.37499C5.68781 9.43358 5.43781 9.68358 5.39094 9.82811C5.32453 10.0234 5.33625 10.3242 5.41437 10.4766C5.50422 10.6562 8.07062 13.2305 8.25812 13.3281C8.44562 13.4258 8.75422 13.4297 8.96515 13.3437C9.1839 13.25 14.5003 7.93749 14.5902 7.71874C14.8441 7.10936 14.348 6.48436 13.7112 6.60155Z" fill="#FEC70B"/>
</g>
<defs>
<clipPath id="clip0_34_468">
<rect width="20" height="20" rx="10" fill="white"/>
</clipPath>
</defs>
</svg>
